<?xml version="1.0" encoding="UTF-8"?>
<svg xmlns="http://www.w3.org/2000/svg" xmlns:xlink="http://www.w3.org/1999/xlink" width="100px" height="100px" viewBox="0 0 100 100" version="1.1">
<g id="surface1">
<path style=" stroke:none;fill-rule:nonzero;fill:rgb(0%,0%,0%);fill-opacity:1;" d="M 66.570312 0.734375 C 66.546875 0.84375 66.359375 1.03125 66.15625 1.140625 C 65.429688 1.609375 65.320312 1.6875 65.265625 1.929688 C 65.226562 2.070312 65.117188 2.179688 65.015625 2.179688 C 64.90625 2.179688 64.796875 2.289062 64.78125 2.453125 C 64.765625 2.585938 64.679688 2.726562 64.601562 2.726562 C 64.453125 2.726562 63.960938 3.375 63.789062 3.8125 C 63.734375 3.976562 63.640625 4.085938 63.59375 4.085938 C 63.546875 4.085938 63.507812 4.195312 63.507812 4.359375 C 63.507812 4.492188 63.476562 4.632812 63.445312 4.632812 C 63.179688 4.632812 62.070312 9.453125 61.648438 12.445312 C 61.335938 14.703125 60.835938 19.28125 60.835938 19.9375 C 60.835938 20.179688 60.8125 20.476562 60.78125 20.5625 C 60.75 20.640625 60.71875 20.96875 60.71875 21.265625 C 60.71875 21.539062 60.695312 21.789062 60.664062 21.789062 C 60.640625 21.789062 60.601562 22.117188 60.585938 22.523438 C 60.570312 22.960938 60.507812 23.96875 60.453125 24.78125 C 60.304688 27.070312 60.242188 28.132812 60.210938 28.867188 C 60.195312 29.25 60.15625 29.796875 60.125 30.09375 C 60.078125 30.664062 60.054688 31.15625 59.929688 34.507812 C 59.890625 35.570312 59.84375 36.546875 59.820312 36.65625 C 59.789062 36.765625 59.773438 37.367188 59.773438 37.992188 C 59.773438 38.585938 59.75 39.21875 59.71875 39.351562 C 59.6875 39.515625 59.648438 40.226562 59.632812 40.984375 C 59.609375 41.71875 59.570312 43.085938 59.539062 43.984375 C 59.507812 44.882812 59.4375 47.03125 59.390625 48.75 C 59.226562 53.976562 59.1875 55.226562 59 59.640625 C 58.96875 60.460938 58.898438 62.3125 58.851562 63.726562 C 58.796875 65.140625 58.734375 66.992188 58.695312 67.8125 C 58.671875 68.625 58.625 69.851562 58.609375 70.53125 C 58.59375 71.210938 58.554688 72.007812 58.523438 72.304688 C 58.5 72.601562 58.460938 73.390625 58.445312 74.070312 C 58.429688 74.757812 58.375 76.773438 58.320312 78.570312 C 58.132812 84.75 58.109375 86.21875 58.078125 90.523438 C 58.054688 93.546875 58.0625 95.070312 58.109375 95.5625 C 58.328125 97.6875 58.390625 98.148438 58.554688 98.695312 C 58.875 99.757812 59.09375 99.976562 59.445312 99.5625 C 59.84375 99.070312 60.367188 98.039062 60.367188 97.742188 C 60.367188 97.601562 60.398438 97.492188 60.429688 97.492188 C 60.5625 97.492188 61.28125 94.523438 61.648438 92.398438 C 61.890625 91.015625 62.265625 88.34375 62.265625 87.960938 C 62.265625 87.828125 62.289062 87.6875 62.320312 87.6875 C 62.359375 87.6875 62.382812 87.5 62.382812 87.28125 C 62.382812 87.0625 62.414062 86.65625 62.4375 86.382812 C 62.476562 86.140625 62.539062 85.132812 62.578125 84.148438 C 62.640625 82.679688 62.640625 82.164062 62.570312 80.960938 C 62.484375 79.578125 62.484375 79.578125 62.34375 79.984375 C 62.265625 80.203125 62.203125 80.5 62.203125 80.609375 C 62.203125 80.828125 61.71875 85.460938 61.523438 87.148438 C 61.304688 88.96875 60.914062 89.679688 60.671875 88.695312 C 60.492188 87.960938 60.40625 86.273438 60.445312 84.640625 C 60.53125 81.453125 60.554688 80.75 60.609375 80.5 C 60.640625 80.335938 60.664062 79.84375 60.664062 79.382812 C 60.664062 78.921875 60.6875 78.429688 60.71875 78.265625 C 60.742188 78.132812 60.78125 77.476562 60.796875 76.796875 C 60.8125 76.117188 60.875 74.210938 60.929688 72.578125 C 61.023438 69.6875 61.0625 68.351562 61.195312 64.8125 C 61.34375 60.703125 61.375 59.882812 61.453125 57.1875 C 61.5 55.609375 61.578125 53.539062 61.609375 52.5625 C 61.648438 51.578125 61.703125 50.078125 61.726562 49.210938 C 61.765625 48.367188 61.8125 46.953125 61.851562 46.078125 C 61.921875 44.09375 62.085938 38.617188 62.117188 37.039062 C 62.140625 36.359375 62.171875 35.570312 62.203125 35.265625 C 62.234375 34.96875 62.265625 34.09375 62.289062 33.359375 C 62.304688 32.601562 62.34375 31.320312 62.375 30.5 C 62.414062 29.6875 62.46875 28.046875 62.515625 26.90625 C 62.554688 25.765625 62.609375 24.726562 62.632812 24.617188 C 62.65625 24.507812 62.679688 24.070312 62.679688 23.664062 C 62.679688 23.257812 62.710938 22.820312 62.734375 22.742188 C 62.773438 22.65625 62.796875 22.273438 62.796875 21.921875 C 62.796875 21.570312 62.828125 21.1875 62.859375 21.109375 C 62.890625 21.023438 62.914062 20.640625 62.914062 20.289062 C 62.914062 19.9375 62.945312 19.554688 62.976562 19.46875 C 63.007812 19.390625 63.03125 19.09375 63.03125 18.84375 C 63.03125 18.296875 63.296875 15.851562 63.523438 14.242188 C 63.757812 12.578125 64.320312 10.101562 64.585938 9.585938 C 64.710938 9.34375 64.8125 9.039062 64.8125 8.929688 C 64.8125 8.796875 64.867188 8.710938 64.921875 8.710938 C 64.992188 8.710938 65.0625 8.578125 65.078125 8.445312 C 65.09375 8.28125 65.195312 8.171875 65.289062 8.171875 C 65.382812 8.171875 65.46875 8.0625 65.492188 7.921875 C 65.507812 7.8125 65.734375 7.625 65.984375 7.570312 C 66.65625 7.351562 67.132812 6.210938 67.382812 4.164062 C 67.429688 3.703125 67.484375 3.078125 67.484375 2.78125 C 67.484375 2.453125 67.507812 2.125 67.539062 2.039062 C 67.578125 1.960938 67.601562 1.578125 67.601562 1.195312 C 67.601562 0.546875 67.585938 0.546875 67.109375 0.546875 C 66.835938 0.546875 66.59375 0.625 66.570312 0.734375 Z M 66.570312 0.734375 "/>
<path style=" stroke:none;fill-rule:nonzero;fill:rgb(0%,0%,0%);fill-opacity:1;" d="M 45.53125 19.445312 C 45.507812 19.554688 45.273438 19.742188 45 19.882812 C 44.085938 20.3125 43.625 20.890625 43 22.304688 C 42.65625 23.070312 42.40625 23.75 42.257812 24.234375 C 42.039062 24.976562 41.09375 29.21875 41.09375 29.46875 C 41.09375 29.601562 41.039062 29.953125 40.976562 30.28125 C 40.90625 30.609375 40.859375 31.046875 40.859375 31.234375 C 40.859375 31.429688 40.835938 31.59375 40.796875 31.59375 C 40.765625 31.59375 40.734375 31.726562 40.734375 31.914062 C 40.734375 32.078125 40.664062 32.898438 40.585938 33.742188 C 40.34375 36.140625 40.335938 36.21875 40.226562 38.671875 C 40.140625 40.796875 40.132812 44.882812 40.21875 46.296875 C 40.242188 46.515625 40.265625 47.117188 40.289062 47.601562 C 40.320312 48.09375 40.367188 48.554688 40.390625 48.640625 C 40.414062 48.71875 40.4375 49.023438 40.4375 49.320312 C 40.4375 49.59375 40.46875 49.835938 40.5 49.835938 C 40.539062 49.835938 40.5625 49.976562 40.5625 50.164062 C 40.5625 50.515625 40.820312 52.34375 40.992188 53.210938 C 41.046875 53.515625 41.09375 53.84375 41.09375 53.945312 C 41.09375 54.054688 41.132812 54.328125 41.171875 54.523438 C 41.203125 54.710938 41.375 55.609375 41.539062 56.507812 C 41.914062 58.578125 42.164062 59.859375 42.609375 62.09375 C 43.015625 64.078125 43.34375 65.90625 43.695312 68.085938 C 43.828125 68.898438 43.984375 69.828125 44.03125 70.125 C 44.179688 70.96875 44.59375 75.023438 44.59375 75.625 C 44.59375 75.898438 44.625 76.28125 44.664062 76.46875 C 44.757812 76.90625 44.757812 83.0625 44.65625 84.070312 C 44.335938 87.28125 44.09375 88.75 43.671875 90.085938 C 43.171875 91.695312 42.421875 92.320312 41.664062 91.828125 C 41.132812 91.476562 40.78125 90.796875 40.46875 89.460938 C 40.070312 87.773438 39.898438 85.570312 39.734375 80.203125 C 39.609375 76.140625 39.453125 73.257812 39.34375 73.257812 C 39.117188 73.257812 38.570312 75.296875 38.226562 77.453125 C 38.015625 78.703125 37.6875 81.648438 37.601562 83.0625 C 37.5625 83.742188 37.5 84.664062 37.46875 85.132812 C 37.398438 86.21875 37.398438 87.882812 37.476562 88.101562 C 37.515625 88.179688 37.539062 88.507812 37.539062 88.804688 C 37.539062 90.578125 38.34375 95.3125 38.851562 96.539062 C 39.460938 98.015625 39.625 98.335938 40.054688 98.859375 C 40.46875 99.34375 40.648438 99.429688 41.359375 99.320312 C 42.539062 99.15625 42.875 98.773438 43.90625 96.515625 C 45.335938 93.40625 46.421875 88.101562 46.960938 81.5625 C 47.15625 79.195312 47.25 73.9375 47.140625 71.625 C 46.8125 64.539062 46.273438 60.320312 44.796875 53.101562 C 44.59375 52.125 44.351562 50.898438 44.257812 50.382812 C 44.164062 49.867188 43.992188 48.9375 43.875 48.335938 C 42.757812 42.703125 42.492188 40.359375 42.5 36.085938 C 42.507812 34.09375 42.53125 33.359375 42.648438 32.132812 C 42.804688 30.5 43.25 28.40625 43.59375 27.695312 C 44.101562 26.664062 45.15625 26.28125 45.648438 26.960938 C 46.101562 27.617188 46.460938 29.632812 46.609375 32.40625 C 46.742188 34.9375 46.78125 35.570312 46.84375 36.625 C 46.882812 37.226562 46.929688 37.992188 46.945312 38.320312 C 46.992188 39.273438 47.109375 39.570312 47.375 39.351562 C 47.523438 39.242188 47.703125 38.804688 47.867188 38.125 C 48.09375 37.203125 48.195312 36.523438 48.46875 33.796875 C 48.507812 33.445312 48.539062 31.835938 48.539062 30.226562 C 48.539062 27.476562 48.523438 27.257812 48.335938 25.515625 C 48.046875 22.960938 47.617188 21.210938 47.046875 20.421875 C 46.648438 19.851562 45.585938 19.171875 45.53125 19.445312 Z M 45.53125 19.445312 "/>
<path style=" stroke:none;fill-rule:nonzero;fill:rgb(0%,0%,0%);fill-opacity:1;" d="M 26.625 29 L 24.578125 38.398438 L 27.664062 38.320312 C 30.625 38.210938 31.289062 38.046875 31.4375 37.367188 C 31.484375 37.171875 31.585938 37.039062 31.679688 37.039062 C 31.765625 37.039062 31.84375 36.898438 31.84375 36.765625 C 31.84375 36.601562 31.898438 36.492188 31.953125 36.492188 C 32.054688 36.492188 32.421875 35.757812 32.492188 35.40625 C 32.570312 35.078125 32.796875 34.585938 32.875 34.585938 C 32.921875 34.585938 32.96875 34.398438 32.992188 34.179688 C 33.007812 33.960938 33.0625 33.765625 33.117188 33.765625 C 33.164062 33.765625 33.203125 33.632812 33.203125 33.5 C 33.203125 33.335938 33.242188 33.226562 33.289062 33.226562 C 33.335938 33.226562 33.382812 33.140625 33.398438 33.007812 C 33.40625 32.898438 33.5625 32.273438 33.742188 31.59375 C 34.109375 30.203125 34.507812 28.429688 34.507812 28.210938 C 34.507812 28.046875 34.695312 26.984375 34.929688 25.875 C 35.007812 25.492188 35.117188 24.8125 35.164062 24.34375 C 35.210938 23.914062 35.289062 23.445312 35.320312 23.335938 C 35.367188 23.226562 35.398438 22.929688 35.398438 22.742188 C 35.398438 22.523438 35.429688 22.328125 35.460938 22.328125 C 35.492188 22.328125 35.515625 22.085938 35.515625 21.789062 C 35.515625 21.484375 35.546875 21.242188 35.570312 21.242188 C 35.601562 21.242188 35.640625 21.023438 35.664062 20.75 C 35.679688 20.507812 35.71875 20.125 35.734375 19.9375 C 35.757812 19.6875 35.03125 19.609375 32.21875 19.609375 L 28.671875 19.609375 Z M 26.625 29 "/>
<path style=" stroke:none;fill-rule:nonzero;fill:rgb(0%,0%,0%);fill-opacity:1;" d="M 87.078125 30.367188 C 86.492188 31.15625 86.359375 31.539062 85.953125 33.359375 C 85.757812 34.257812 85.546875 35.515625 85.476562 36.140625 C 85.414062 36.789062 85.34375 37.3125 85.320312 37.3125 C 85.289062 37.3125 85.273438 37.523438 85.273438 37.796875 C 85.273438 38.070312 85.25 38.398438 85.226562 38.53125 C 85.164062 38.859375 85.007812 41.367188 84.90625 43.789062 C 84.804688 46.15625 84.710938 46.460938 84.164062 46.351562 C 83.703125 46.265625 83.304688 46.734375 83.054688 47.65625 C 82.46875 49.78125 82.070312 52.34375 82.070312 53.976562 L 82.070312 54.742188 L 83.195312 54.742188 C 84.25 54.742188 84.320312 54.765625 84.382812 55.28125 C 84.414062 55.585938 84.429688 56.101562 84.414062 56.453125 C 84.390625 56.804688 84.351562 58.007812 84.320312 59.125 C 84.265625 61.273438 84.1875 63.398438 84.09375 65.359375 C 84.0625 66.039062 83.992188 67.617188 83.9375 68.898438 C 83.804688 72.085938 83.734375 73.695312 83.664062 75.296875 C 83.507812 78.921875 83.484375 79.6875 83.3125 86.875 C 83.25 89.734375 83.34375 94.039062 83.515625 95.890625 C 83.757812 98.53125 84.09375 99.453125 84.8125 99.453125 C 85.726562 99.453125 86.46875 97.796875 87.3125 93.84375 C 87.953125 90.851562 88.234375 88.34375 88.234375 85.539062 C 88.234375 83.851562 88.226562 83.609375 88.125 83.609375 C 87.992188 83.609375 87.828125 84.34375 87.460938 86.46875 C 86.96875 89.351562 86.578125 90.960938 86.367188 90.960938 C 86.179688 90.960938 85.867188 89.867188 85.867188 89.273438 C 85.867188 89.054688 85.835938 88.75 85.796875 88.585938 C 85.710938 88.179688 85.804688 81.398438 85.921875 80.203125 C 85.953125 79.898438 85.984375 79.21875 86.007812 78.703125 C 86.015625 78.1875 86.078125 76.632812 86.132812 75.296875 C 86.179688 73.9375 86.257812 71.921875 86.28125 70.804688 C 86.40625 66.585938 86.445312 65.414062 86.632812 60.1875 C 86.75 57 86.898438 55.5 87.15625 55.0625 C 87.242188 54.898438 87.523438 54.742188 87.773438 54.65625 C 88.164062 54.578125 88.273438 54.414062 88.5625 53.625 C 88.9375 52.585938 89.601562 49.5625 89.601562 48.9375 C 89.601562 48.695312 89.625 48.421875 89.65625 48.335938 C 89.695312 48.257812 89.71875 47.742188 89.71875 47.21875 L 89.71875 46.296875 L 88.539062 46.296875 C 87.164062 46.296875 87.265625 46.570312 87.351562 42.890625 C 87.414062 39.867188 87.46875 38.695312 87.53125 38.507812 C 87.5625 38.429688 87.585938 38.070312 87.585938 37.71875 C 87.585938 37.367188 87.609375 36.984375 87.640625 36.898438 C 87.679688 36.820312 87.703125 36.46875 87.703125 36.109375 C 87.703125 35.78125 87.71875 35.40625 87.742188 35.296875 C 87.765625 35.210938 87.789062 34.96875 87.804688 34.773438 C 87.804688 34.585938 87.84375 33.960938 87.882812 33.359375 C 87.921875 32.757812 87.960938 31.75 87.976562 31.101562 L 88.007812 29.953125 L 87.664062 29.984375 C 87.46875 30.007812 87.210938 30.171875 87.078125 30.367188 Z M 87.078125 30.367188 "/>
<path style=" stroke:none;fill-rule:nonzero;fill:rgb(0%,0%,0%);fill-opacity:1;" d="M 96.65625 44.9375 C 96.570312 45.046875 96.398438 45.15625 96.257812 45.179688 C 96.125 45.203125 95.992188 45.3125 95.976562 45.476562 C 95.953125 45.617188 95.875 45.75 95.789062 45.75 C 95.710938 45.75 95.601562 45.859375 95.539062 46 C 95.484375 46.132812 95.335938 46.460938 95.203125 46.703125 C 94.75 47.546875 93.96875 49.507812 93.9375 49.890625 C 93.929688 50 93.890625 50.109375 93.859375 50.109375 C 93.695312 50.109375 92.164062 56.890625 91.796875 59.203125 C 91.679688 59.914062 91.554688 60.648438 91.523438 60.835938 C 91.265625 62.203125 90.585938 67.8125 90.398438 70.125 C 90.34375 70.859375 90.265625 71.59375 90.242188 71.734375 C 90.21875 71.898438 90.195312 72.273438 90.195312 72.601562 C 90.195312 72.960938 90.171875 73.28125 90.140625 73.367188 C 90.109375 73.445312 90.070312 73.859375 90.054688 74.265625 C 90.039062 74.703125 89.992188 75.625 89.953125 76.390625 C 89.765625 80.226562 89.703125 82.515625 89.679688 87.257812 C 89.664062 90.03125 89.679688 92.101562 89.710938 92.429688 C 89.742188 92.757812 89.78125 93.351562 89.796875 93.820312 C 90 98.3125 90.695312 100.40625 91.671875 99.453125 C 92.015625 99.125 92.3125 98.609375 92.507812 98.070312 C 92.585938 97.820312 92.695312 97.492188 92.75 97.359375 C 93.148438 96.1875 93.398438 95.179688 94.078125 91.992188 C 94.5 89.976562 94.929688 87.851562 95.03125 87.257812 C 95.140625 86.679688 95.242188 86.273438 95.257812 86.359375 C 95.28125 86.46875 95.273438 88.179688 95.25 90.195312 C 95.203125 93.765625 95.21875 94.5 95.382812 96.296875 C 95.492188 97.414062 95.929688 99.398438 96.070312 99.398438 C 96.125 99.398438 96.195312 99.507812 96.210938 99.671875 C 96.257812 100.023438 96.8125 100.023438 96.859375 99.671875 C 96.882812 99.539062 96.960938 99.398438 97.039062 99.398438 C 97.117188 99.398438 97.195312 99.289062 97.21875 99.15625 C 97.234375 99.023438 97.328125 98.828125 97.429688 98.71875 C 97.523438 98.609375 97.601562 98.445312 97.601562 98.335938 C 97.601562 98.226562 97.671875 97.960938 97.757812 97.765625 C 98.09375 96.921875 98.914062 93.25 99.085938 91.804688 C 99.117188 91.5 99.179688 91.125 99.21875 90.90625 C 99.304688 90.492188 99.445312 89.382812 99.625 87.664062 C 99.695312 87.007812 99.773438 86.25 99.804688 86 C 99.835938 85.726562 99.859375 85.265625 99.859375 84.992188 C 99.859375 84.695312 99.890625 84.367188 99.914062 84.289062 C 99.953125 84.203125 99.976562 83.171875 99.976562 82 C 99.976562 80.28125 99.953125 79.796875 99.867188 79.414062 C 99.765625 78.976562 99.742188 79 99.546875 80.007812 C 99.4375 80.585938 99.273438 81.78125 99.179688 82.679688 C 98.882812 85.671875 98.710938 87.28125 98.640625 87.554688 C 98.523438 88.101562 98.0625 89.054688 97.921875 89.054688 C 97.695312 89.054688 97.648438 88.101562 97.726562 84.3125 C 97.8125 79.492188 97.84375 78.078125 97.882812 77.617188 C 97.898438 77.398438 97.921875 76.773438 97.9375 76.25 C 97.945312 75.734375 97.976562 74.617188 98.015625 73.804688 C 98.054688 72.984375 98.09375 71.8125 98.117188 71.210938 C 98.140625 70.617188 98.171875 70.015625 98.203125 69.851562 C 98.234375 69.71875 98.257812 69.148438 98.257812 68.601562 C 98.257812 68.03125 98.289062 67.484375 98.3125 67.398438 C 98.351562 67.320312 98.375 66.828125 98.375 66.34375 C 98.375 65.851562 98.390625 65.359375 98.414062 65.25 C 98.4375 65.140625 98.46875 64.648438 98.476562 64.1875 C 98.5 62.523438 98.5625 61 98.617188 60.835938 C 98.648438 60.757812 98.671875 60.210938 98.671875 59.640625 C 98.671875 59.070312 98.703125 58.5 98.734375 58.414062 C 98.765625 58.335938 98.789062 57.84375 98.789062 57.328125 C 98.789062 56.804688 98.8125 56.34375 98.84375 56.265625 C 98.867188 56.179688 98.90625 55.476562 98.929688 54.6875 C 98.953125 53.890625 98.976562 52.859375 99 52.421875 C 99.148438 47.984375 99.132812 46.84375 98.929688 46.84375 C 98.882812 46.84375 98.796875 46.703125 98.734375 46.570312 C 98.664062 46.40625 98.5625 46.15625 98.492188 46.023438 C 98.429688 45.859375 98.335938 45.75 98.289062 45.75 C 98.242188 45.75 98.148438 45.640625 98.09375 45.507812 C 97.804688 44.828125 96.960938 44.5 96.65625 44.9375 Z M 96.296875 53.945312 C 96.382812 54.140625 96.507812 54.601562 96.570312 54.984375 C 96.734375 55.960938 96.726562 59.398438 96.554688 61.820312 C 96.484375 62.796875 96.359375 64.679688 96.273438 66.039062 C 96.179688 67.375 96.03125 69.25 95.9375 70.203125 C 95.84375 71.15625 95.765625 72.085938 95.765625 72.304688 C 95.765625 72.523438 95.742188 72.710938 95.703125 72.710938 C 95.679688 72.710938 95.648438 72.851562 95.648438 73.015625 C 95.648438 73.476562 95.460938 75.164062 95.25 76.664062 C 95.140625 77.398438 95.054688 78.15625 95.054688 78.320312 C 95.054688 78.484375 95 78.84375 94.9375 79.109375 C 94.867188 79.382812 94.820312 79.742188 94.820312 79.929688 C 94.820312 80.117188 94.765625 80.476562 94.695312 80.75 C 94.632812 81.015625 94.59375 81.320312 94.609375 81.429688 C 94.625 81.539062 94.554688 81.96875 94.460938 82.382812 C 94.359375 82.8125 94.28125 83.28125 94.28125 83.414062 C 94.28125 83.796875 93.679688 86.601562 93.601562 86.601562 C 93.5625 86.601562 93.492188 86.765625 93.460938 86.984375 C 93.335938 87.664062 92.9375 88.476562 92.640625 88.640625 C 92.359375 88.835938 92.359375 88.804688 92.265625 87.90625 C 92.140625 86.570312 92.148438 78.484375 92.289062 75.625 C 92.382812 73.664062 92.679688 68.929688 92.796875 67.671875 C 92.984375 65.578125 93.546875 60.484375 93.648438 59.96875 C 93.710938 59.640625 93.75 59.367188 93.726562 59.367188 C 93.695312 59.367188 93.882812 58.390625 94.140625 57.1875 C 94.546875 55.257812 94.835938 54.328125 95.289062 53.539062 C 95.4375 53.296875 96.132812 53.59375 96.296875 53.945312 Z M 96.296875 53.945312 "/>
<path style=" stroke:none;fill-rule:nonzero;fill:rgb(0%,0%,0%);fill-opacity:1;" d="M 54.554688 45.476562 C 54.507812 45.617188 54.40625 45.75 54.328125 45.75 C 54.257812 45.75 54.148438 45.859375 54.09375 46 C 54.039062 46.132812 53.828125 46.59375 53.632812 47.007812 C 52.6875 48.992188 51.734375 53.046875 50.804688 59.039062 C 50.679688 59.804688 50.578125 60.59375 50.578125 60.726562 C 50.578125 60.890625 50.5625 61 50.539062 61 C 50.507812 61 50.460938 61.273438 50.429688 61.625 C 50.304688 62.773438 50.015625 65.226562 49.984375 65.359375 C 49.960938 65.4375 49.890625 66.179688 49.8125 66.992188 C 49.742188 67.8125 49.640625 68.929688 49.59375 69.445312 C 49.546875 69.960938 49.476562 70.640625 49.445312 70.945312 C 49.351562 72.0625 49.21875 74.101562 49.21875 74.617188 C 49.21875 74.890625 49.195312 75.21875 49.15625 75.296875 C 49.125 75.382812 49.101562 75.875 49.101562 76.390625 C 49.101562 76.90625 49.078125 77.398438 49.039062 77.476562 C 49.007812 77.5625 48.976562 78.242188 48.976562 78.945312 C 48.976562 79.65625 48.953125 80.367188 48.914062 80.53125 C 48.882812 80.695312 48.859375 82.1875 48.882812 84.71875 C 48.90625 88.804688 48.953125 90.578125 49.046875 90.851562 C 49.078125 90.929688 49.101562 91.179688 49.101562 91.390625 C 49.101562 91.609375 49.171875 92.507812 49.25 93.351562 C 49.5 95.835938 50.257812 98.859375 50.625 98.859375 C 50.679688 98.859375 50.765625 98.992188 50.796875 99.15625 C 50.890625 99.5625 52.203125 99.320312 52.59375 98.804688 C 52.953125 98.367188 53.328125 97.578125 53.695312 96.539062 C 53.828125 96.15625 53.976562 95.78125 54.023438 95.671875 C 54.15625 95.398438 54.609375 93.679688 54.90625 92.320312 C 55.398438 90.085938 55.632812 88.453125 56.039062 84.289062 C 56.070312 83.984375 56.117188 82.734375 56.140625 81.484375 L 56.1875 79.25 L 56.039062 79.25 C 55.882812 79.25 55.796875 79.601562 55.601562 80.9375 C 55.320312 83.007812 54.710938 85.757812 54.226562 87.171875 C 53.679688 88.78125 53.429688 89.164062 52.890625 89.164062 C 52.4375 89.1875 52.367188 89.109375 52.140625 88.398438 C 51.898438 87.664062 51.585938 85.835938 51.585938 85.15625 C 51.585938 84.96875 51.5625 84.695312 51.539062 84.5625 C 51.507812 84.398438 51.460938 83.523438 51.445312 82.570312 C 51.414062 81.179688 51.421875 80.882812 51.492188 80.882812 C 51.539062 80.882812 51.585938 80.773438 51.601562 80.664062 C 51.609375 80.554688 51.765625 80.117188 51.945312 79.710938 C 52.59375 78.242188 53.210938 76.5 54.195312 73.335938 C 54.398438 72.710938 55.632812 67.023438 55.757812 66.179688 C 55.8125 65.796875 55.929688 65.007812 56.015625 64.40625 C 56.25 62.90625 56.609375 59.476562 56.695312 58.007812 C 56.734375 57.328125 56.78125 55.71875 56.789062 54.414062 C 56.8125 52.125 56.757812 50.625 56.554688 48.914062 C 56.46875 48.09375 56.039062 46.296875 55.945312 46.296875 C 55.890625 46.296875 55.859375 46.15625 55.859375 46.023438 C 55.859375 45.859375 55.796875 45.75 55.71875 45.75 C 55.632812 45.75 55.546875 45.617188 55.53125 45.476562 C 55.484375 45.125 54.671875 45.125 54.554688 45.476562 Z M 54.25 56.15625 C 54.390625 56.75 54.492188 57.492188 54.492188 57.757812 C 54.492188 58.03125 54.515625 58.304688 54.539062 58.390625 C 54.632812 58.632812 54.5 62.71875 54.367188 64 C 54.289062 64.679688 54.210938 65.25 54.1875 65.304688 C 54.15625 65.359375 54.140625 65.546875 54.140625 65.742188 C 54.140625 66.34375 53.28125 69.90625 52.9375 70.78125 C 52.578125 71.648438 51.867188 72.414062 51.6875 72.085938 C 51.5 71.757812 51.554688 69.039062 51.851562 63.859375 C 51.875 63.375 52.125 61.140625 52.273438 60.046875 C 52.351562 59.453125 52.445312 58.710938 52.476562 58.414062 C 52.546875 57.703125 53 55.75 53.1875 55.367188 C 53.460938 54.796875 53.515625 54.765625 53.765625 54.898438 C 53.953125 55.007812 54.070312 55.3125 54.25 56.15625 Z M 54.25 56.15625 "/>
<path style=" stroke:none;fill-rule:nonzero;fill:rgb(0%,0%,0%);fill-opacity:1;" d="M 69.703125 45.53125 C 69.453125 45.945312 69.320312 46.1875 69.070312 46.679688 C 68.953125 46.921875 68.828125 47.117188 68.789062 47.117188 C 68.757812 47.117188 68.726562 47.21875 68.726562 47.382812 C 68.726562 47.523438 68.695312 47.65625 68.664062 47.65625 C 68.53125 47.65625 67.804688 50.1875 67.34375 52.257812 C 66.921875 54.109375 66.554688 56.101562 66.296875 57.867188 C 66.25 58.195312 66.101562 59.203125 65.960938 60.078125 C 65.5625 62.742188 64.75 69.773438 64.75 70.617188 C 64.75 70.75 64.71875 71.242188 64.671875 71.703125 C 64.625 72.195312 64.554688 73.117188 64.515625 73.804688 C 64.476562 74.484375 64.421875 75.273438 64.390625 75.570312 C 64.25 77.179688 64.140625 83.304688 64.210938 86.164062 C 64.296875 89.703125 64.3125 90.03125 64.554688 92.453125 C 64.609375 93.054688 64.664062 93.601562 64.664062 93.679688 C 64.679688 94.390625 65.1875 96.953125 65.507812 97.984375 C 66.007812 99.59375 66.9375 100.40625 67.445312 99.703125 C 67.546875 99.5625 67.789062 99.210938 67.984375 98.9375 C 68.179688 98.664062 68.4375 98.226562 68.546875 97.929688 C 69.054688 96.648438 69.289062 96.054688 69.320312 95.890625 C 69.335938 95.804688 69.523438 95.125 69.734375 94.359375 C 69.945312 93.625 70.179688 92.757812 70.25 92.484375 C 70.5 91.5 71.023438 88.101562 71.1875 86.46875 C 71.273438 85.570312 71.367188 84.617188 71.398438 84.367188 C 71.429688 84.09375 71.453125 83.554688 71.453125 83.171875 C 71.453125 82.757812 71.484375 81.96875 71.515625 81.429688 C 71.59375 80.3125 71.546875 78.976562 71.445312 78.976562 C 71.320312 78.976562 70.984375 80.335938 70.796875 81.648438 C 70.40625 84.289062 69.726562 87.0625 69.203125 88.125 C 68.679688 89.1875 68.03125 89.40625 67.640625 88.640625 C 67.148438 87.71875 66.765625 84.96875 66.765625 82.382812 C 66.765625 81.289062 66.789062 81.179688 67.085938 80.28125 C 67.257812 79.765625 67.460938 79.21875 67.539062 79.109375 C 67.625 79 67.703125 78.84375 67.71875 78.734375 C 67.734375 78.648438 67.90625 78.1875 68.101562 77.726562 C 68.554688 76.6875 68.859375 75.898438 68.90625 75.679688 C 68.921875 75.601562 69.109375 74.976562 69.328125 74.265625 C 69.710938 73.015625 70.921875 67.617188 71.054688 66.554688 C 71.101562 66.234375 71.195312 65.46875 71.296875 64.867188 C 71.382812 64.242188 71.453125 63.617188 71.453125 63.453125 C 71.453125 63.320312 71.46875 63.179688 71.5 63.179688 C 71.523438 63.179688 71.578125 62.773438 71.625 62.28125 C 71.664062 61.820312 71.742188 61.054688 71.789062 60.617188 C 71.835938 60.1875 71.867188 59.617188 71.867188 59.3125 C 71.867188 59.039062 71.898438 58.820312 71.929688 58.820312 C 71.960938 58.820312 71.984375 58.414062 71.984375 57.898438 C 71.984375 57.382812 72.015625 56.859375 72.046875 56.78125 C 72.085938 56.703125 72.109375 55.421875 72.109375 53.921875 C 72.109375 52.421875 72.085938 51.140625 72.046875 51.0625 C 72.015625 50.976562 71.984375 50.65625 71.984375 50.328125 C 71.984375 50.023438 71.9375 49.453125 71.882812 49.070312 C 71.820312 48.664062 71.757812 48.148438 71.734375 47.875 C 71.6875 47.328125 71.195312 45.75 71.078125 45.75 C 71.023438 45.75 70.96875 45.617188 70.953125 45.476562 C 70.90625 45.125 69.9375 45.179688 69.703125 45.53125 Z M 69.375 55.367188 C 69.585938 55.796875 69.695312 56.375 69.78125 57.492188 C 69.921875 59.3125 69.84375 61.984375 69.585938 64.242188 C 69.53125 64.703125 69.507812 65.226562 69.523438 65.359375 C 69.546875 65.523438 69.539062 65.632812 69.5 65.632812 C 69.46875 65.632812 69.398438 65.960938 69.351562 66.367188 C 69.234375 67.429688 68.59375 70.257812 68.3125 71 C 68.179688 71.351562 68.070312 71.59375 68.054688 71.59375 C 68.046875 71.570312 67.859375 71.703125 67.632812 71.898438 C 67.054688 72.359375 66.921875 72.21875 66.898438 71.210938 C 66.867188 70.046875 66.992188 66.585938 67.140625 64.679688 C 67.304688 62.445312 67.65625 59.179688 67.804688 58.414062 C 67.875 58.0625 67.984375 57.40625 68.0625 56.945312 C 68.140625 56.484375 68.242188 56.101562 68.28125 56.101562 C 68.328125 56.101562 68.398438 55.851562 68.445312 55.585938 C 68.5625 54.765625 69.039062 54.65625 69.375 55.367188 Z M 69.375 55.367188 "/>
<path style=" stroke:none;fill-rule:nonzero;fill:rgb(0%,0%,0%);fill-opacity:1;" d="M 77.742188 45.75 C 77.625 46.023438 77.421875 46.460938 77.296875 46.703125 C 76.984375 47.304688 76.765625 47.765625 76.734375 47.929688 C 76.710938 48.015625 76.625 48.257812 76.523438 48.476562 C 76.367188 48.828125 75.375 53.210938 75.21875 54.21875 C 75.1875 54.4375 75.09375 55.203125 75.015625 55.9375 C 74.875 57.1875 74.867188 57.601562 74.867188 60.867188 C 74.867188 63.015625 74.890625 64.734375 74.929688 65.117188 C 74.96875 65.46875 75.101562 66.75 75.226562 67.945312 C 75.351562 69.148438 75.625 71.320312 75.835938 72.820312 C 76.046875 74.289062 76.257812 75.710938 76.289062 75.953125 C 76.320312 76.195312 76.5 77.421875 76.679688 78.703125 C 76.859375 79.984375 77.070312 81.5625 77.148438 82.242188 C 77.21875 82.921875 77.296875 83.6875 77.328125 83.929688 C 77.398438 84.617188 77.398438 88.507812 77.328125 88.507812 C 77.296875 88.507812 77.265625 88.640625 77.265625 88.804688 C 77.265625 89.296875 76.929688 90.632812 76.6875 91.125 C 76.398438 91.695312 75.703125 91.71875 75.421875 91.148438 C 75.015625 90.335938 74.6875 88.234375 74.296875 83.929688 C 74.195312 82.898438 74.03125 82.789062 73.671875 83.578125 C 73.234375 84.5625 72.84375 86.898438 72.648438 89.898438 C 72.554688 91.203125 72.5625 91.75 72.679688 93.601562 C 72.820312 95.695312 73.242188 97.6875 73.734375 98.609375 C 74.375 99.757812 75.945312 99.617188 76.640625 98.3125 C 77.039062 97.578125 77.796875 95.78125 77.859375 95.453125 C 77.898438 95.234375 77.96875 95.046875 78 95.046875 C 78.085938 95.046875 78.976562 90.820312 79.132812 89.734375 C 79.242188 88.96875 79.414062 87.421875 79.515625 86.195312 C 79.734375 83.851562 79.726562 79.6875 79.515625 77.835938 C 79.484375 77.5625 79.460938 77.179688 79.460938 76.929688 C 79.460938 76.71875 79.40625 76.117188 79.34375 75.570312 C 79.273438 75.054688 79.21875 74.539062 79.21875 74.398438 C 79.171875 73.53125 79.140625 73.257812 79.09375 73.257812 C 79.070312 73.257812 79.046875 73.148438 79.046875 72.984375 C 79.046875 72.851562 78.921875 71.84375 78.765625 70.78125 C 78.601562 69.71875 78.453125 68.601562 78.414062 68.328125 C 78.382812 68.03125 78.289062 67.507812 78.21875 67.15625 C 78.15625 66.828125 78.09375 66.445312 78.09375 66.34375 C 78.09375 66.203125 78.046875 65.90625 77.992188 65.65625 C 77.875 65.195312 77.820312 64.8125 77.421875 62.09375 C 76.742188 57.382812 76.757812 55.367188 77.5 53.570312 C 77.773438 52.882812 77.90625 52.78125 78.304688 52.726562 C 78.703125 52.695312 78.804688 52.78125 78.96875 53.296875 C 79.070312 53.648438 79.171875 53.921875 79.195312 53.921875 C 79.226562 53.921875 79.445312 54.796875 79.671875 55.851562 C 80.132812 57.953125 80.179688 58.007812 80.5 56.859375 C 80.578125 56.5625 80.71875 55.796875 80.8125 55.171875 C 80.945312 54.195312 80.96875 53.789062 80.960938 51.984375 C 80.953125 50.242188 80.921875 49.703125 80.796875 48.804688 C 80.632812 47.578125 80.304688 46.296875 80.15625 46.296875 C 80.101562 46.296875 80.046875 46.1875 80.03125 46.054688 C 79.976562 45.671875 79.5625 45.453125 78.71875 45.34375 C 78.054688 45.234375 77.914062 45.289062 77.742188 45.75 Z M 77.742188 45.75 "/>
<path style=" stroke:none;fill-rule:nonzero;fill:rgb(0%,0%,0%);fill-opacity:1;" d="M 20.101562 58.960938 L 18.171875 67.8125 L 27.257812 67.8125 L 27.539062 69.0625 C 27.804688 70.3125 27.8125 70.367188 27.8125 72.0625 C 27.8125 73.039062 27.789062 74.023438 27.757812 74.289062 C 27.734375 74.539062 27.664062 75.242188 27.59375 75.84375 C 27.445312 77.3125 26.9375 79.523438 26.75 79.523438 C 26.695312 79.523438 26.625 79.632812 26.585938 79.796875 C 26.5625 79.929688 24.359375 80.117188 20.976562 80.226562 L 15.421875 80.421875 L 14.929688 82.703125 L 14.4375 84.96875 L 14.78125 84.96875 C 14.96875 84.96875 15.117188 85.078125 15.117188 85.242188 C 15.117188 85.375 15.164062 85.515625 15.210938 85.515625 C 15.257812 85.515625 15.296875 85.703125 15.296875 85.921875 C 15.296875 86.140625 15.328125 86.328125 15.359375 86.328125 C 15.390625 86.328125 15.414062 86.570312 15.414062 86.875 C 15.414062 87.171875 15.445312 87.421875 15.476562 87.421875 C 15.5625 87.421875 15.546875 89.757812 15.46875 90.46875 C 15.421875 90.796875 15.320312 91.421875 15.226562 91.828125 L 15.070312 92.59375 L 12.78125 92.59375 L 12.1875 95.3125 L 11.59375 98.039062 L 18.742188 98.039062 C 24.953125 98.039062 25.929688 97.984375 26.148438 97.632812 C 26.289062 97.414062 26.539062 97.21875 26.71875 97.21875 C 26.890625 97.21875 27.054688 97.085938 27.070312 96.953125 C 27.085938 96.789062 27.226562 96.679688 27.367188 96.679688 C 27.507812 96.679688 27.648438 96.539062 27.664062 96.40625 C 27.679688 96.242188 27.765625 96.132812 27.835938 96.132812 C 27.914062 96.132812 28.007812 95.945312 28.046875 95.726562 C 28.085938 95.507812 28.1875 95.3125 28.257812 95.3125 C 28.335938 95.3125 28.40625 95.179688 28.40625 95.046875 C 28.40625 94.882812 28.460938 94.773438 28.515625 94.773438 C 28.578125 94.773438 28.6875 94.46875 28.765625 94.09375 C 28.84375 93.734375 28.945312 93.40625 28.984375 93.40625 C 29.023438 93.40625 29.164062 92.976562 29.28125 92.453125 C 29.398438 91.9375 29.515625 91.5 29.546875 91.5 C 29.609375 91.5 29.914062 90.226562 30.445312 87.773438 C 30.992188 85.242188 31.085938 84.71875 31.1875 83.820312 C 31.234375 83.390625 31.289062 83.0625 31.3125 83.0625 C 31.335938 83.0625 31.375 82.757812 31.390625 82.382812 C 31.414062 82 31.460938 81.703125 31.484375 81.703125 C 31.523438 81.703125 31.546875 81.507812 31.546875 81.289062 C 31.546875 80.882812 31.5625 80.640625 31.75 79.054688 C 31.804688 78.59375 31.84375 77.882812 31.84375 77.53125 C 31.84375 77.148438 31.875 76.742188 31.898438 76.664062 C 31.9375 76.578125 31.960938 75.84375 31.960938 75.023438 C 31.960938 74.210938 31.992188 73.476562 32.023438 73.390625 C 32.054688 73.28125 32.078125 71.265625 32.078125 68.21875 C 32.078125 65.171875 32.054688 63.15625 32.023438 63.046875 C 31.992188 62.960938 31.960938 62.335938 31.960938 61.679688 C 31.960938 61.03125 31.9375 60.429688 31.90625 60.320312 C 31.875 60.242188 31.835938 59.804688 31.8125 59.367188 C 31.789062 58.90625 31.757812 58.554688 31.734375 58.554688 C 31.710938 58.554688 31.65625 58.171875 31.609375 57.679688 C 31.515625 56.726562 30.914062 53.921875 30.804688 53.921875 C 30.773438 53.921875 30.6875 53.703125 30.625 53.429688 C 30.554688 53.1875 30.398438 52.75 30.273438 52.453125 C 30.140625 52.179688 29.984375 51.851562 29.929688 51.71875 C 29.875 51.578125 29.78125 51.46875 29.726562 51.46875 C 29.664062 51.46875 29.5625 51.28125 29.507812 51.0625 C 29.445312 50.84375 29.320312 50.65625 29.226562 50.65625 C 29.140625 50.65625 29.046875 50.515625 29.023438 50.382812 C 29 50.21875 27.765625 50.109375 25.507812 50.109375 L 22.03125 50.109375 Z M 20.101562 58.960938 "/>
</g>
</svg>
